# WaveFront *.obj file (generated by Autodesk ATF)

mtllib door.mtl

g Solid1

v 90.000000 -4.500000 0.000000
v 90.000000 0.000000 0.000000
v 90.000000 0.000000 210.000000
v 90.000000 -4.500000 210.000000
v 0.000000 -4.500000 0.000000
v 0.000000 -4.500000 210.000000
v 0.000000 0.000000 0.000000
v 0.000000 0.000000 210.000000
vt 4.500000 0.000000 0.000000
vt 4.500000 210.000000 0.000000
vt 0.000000 0.000000 0.000000
vt 0.000000 210.000000 0.000000
vt 0.000000 0.000000 0.000000
vt 90.000000 0.000000 0.000000
vt 0.000000 210.000000 0.000000
vt 90.000000 210.000000 0.000000
vt 4.500000 0.000000 0.000000
vt 4.500000 210.000000 0.000000
vt -0.000000 0.000000 0.000000
vt -0.000000 210.000000 0.000000
vt 0.000000 0.000000 0.000000
vt 90.000000 0.000000 0.000000
vt 0.000000 210.000000 0.000000
vt 90.000000 210.000000 0.000000
vt 45.000000 2.250000 0.000000
vt -45.000000 2.250000 0.000000
vt 45.000000 -2.250000 0.000000
vt -45.000000 -2.250000 0.000000
vt 45.000000 2.250000 0.000000
vt -45.000000 2.250000 0.000000
vt 45.000000 -2.250000 0.000000
vt -45.000000 -2.250000 0.000000
vn 1.000000 0.000000 -0.000000
vn 1.000000 0.000000 -0.000000
vn 1.000000 0.000000 -0.000000
vn 1.000000 0.000000 -0.000000
vn 0.000000 -1.000000 0.000000
vn 0.000000 -1.000000 0.000000
vn 0.000000 -1.000000 0.000000
vn 0.000000 -1.000000 0.000000
vn -1.000000 -0.000000 0.000000
vn -1.000000 -0.000000 0.000000
vn -1.000000 -0.000000 0.000000
vn -1.000000 -0.000000 0.000000
vn -0.000000 1.000000 0.000000
vn -0.000000 1.000000 0.000000
vn -0.000000 1.000000 0.000000
vn -0.000000 1.000000 0.000000
vn -0.000000 -0.000000 -1.000000
vn -0.000000 -0.000000 -1.000000
vn -0.000000 -0.000000 -1.000000
vn -0.000000 -0.000000 -1.000000
vn 0.000000 0.000000 1.000000
vn 0.000000 0.000000 1.000000
vn 0.000000 0.000000 1.000000
vn 0.000000 0.000000 1.000000
usemtl 191,191,191
f 2/1/1 3/2/2 1/3/3
f 1/3/3 3/2/2 4/4/4
f 5/5/5 1/6/6 6/7/7
f 6/7/7 1/6/6 4/8/8
f 5/9/9 6/10/10 7/11/11
f 7/11/11 6/10/10 8/12/12
f 2/13/13 7/14/14 3/15/15
f 3/15/15 7/14/14 8/16/16
f 7/17/17 2/18/18 5/19/19
f 5/19/19 2/18/18 1/20/20
f 3/21/21 8/22/22 4/23/23
f 4/23/23 8/22/22 6/24/24

# 8 vertices
# 24 texture params
# 24 normals
# 12 facets

# 1 groups
